<?xml version="1.0" standalone="no"?>
<!DOCTYPE svg PUBLIC "-//W3C//DTD SVG 20010904//EN"
 "http://www.w3.org/TR/2001/REC-SVG-20010904/DTD/svg10.dtd">
<svg version="1.0" xmlns="http://www.w3.org/2000/svg"
 width="224.000000pt" height="224.000000pt" viewBox="0 0 224.000000 224.000000"
 preserveAspectRatio="xMidYMid meet">

<g transform="translate(0.000000,224.000000) scale(0.100000,-0.100000)"
fill="#000000" stroke="none">
<path d="M520 2234 c-85 -7 -161 -25 -226 -55 -89 -39 -189 -139 -231 -229
-57 -123 -58 -145 -58 -840 0 -573 2 -642 18 -704 52 -203 188 -338 390 -384
63 -14 155 -16 712 -17 577 0 647 2 708 18 161 41 271 126 337 261 22 44 46
108 53 141 18 88 17 1292 -1 1390 -37 197 -179 350 -374 402 -55 14 -141 17
-673 18 -335 1 -630 1 -655 -1z m585 -375 c-17 -8 -16 -8 5 -3 51 13 103 16
97 7 -4 -6 5 -8 21 -6 22 4 24 2 12 -7 -12 -8 -10 -9 10 -5 15 3 40 -2 65 -15
21 -11 44 -20 50 -20 5 0 24 -13 42 -28 17 -15 39 -32 49 -38 11 -6 15 -15 10
-23 -7 -11 -10 -11 -17 0 -6 10 -9 10 -9 2 0 -6 4 -14 10 -18 5 -3 6 -13 3
-23 -4 -13 -2 -13 10 3 8 11 13 23 11 27 -3 5 -2 8 2 8 17 0 69 -70 100 -135
176 -368 -141 -781 -545 -711 -92 16 -182 60 -248 121 -37 34 -45 48 -54 100
-19 106 11 282 63 371 l21 36 24 -49 c41 -79 108 -167 179 -232 37 -33 71 -61
77 -61 5 0 7 -7 4 -14 -4 -11 -1 -13 11 -9 39 15 104 67 176 144 l77 82 19
-21 c11 -12 20 -26 20 -32 0 -5 5 -10 10 -10 6 0 9 -5 8 -11 -2 -6 4 -13 13
-14 15 -3 17 2 21 44 1 11 6 19 11 18 14 -3 37 83 30 114 -3 16 -9 26 -14 23
-5 -3 -9 23 -10 58 0 35 -4 72 -9 83 -5 13 -7 -2 -4 -40 3 -48 2 -53 -5 -27
-11 42 -25 57 -16 17 l7 -30 -27 33 c-15 17 -31 32 -36 32 -11 0 -74 64 -71
73 1 4 -3 7 -10 6 -7 -2 -38 9 -68 23 -117 55 -149 63 -265 63 -60 0 -126 -3
-145 -7 -33 -7 -34 -7 -15 8 12 9 30 13 45 9 19 -4 22 -3 10 5 -13 9 -13 11 0
20 8 6 23 8 33 6 9 -2 14 0 11 5 -7 13 64 42 88 36 10 -3 16 -1 13 3 -7 11 20
18 75 18 36 0 41 -1 25 -9z m-185 -1154 c3 -31 8 -45 13 -37 11 17 78 15 104
-3 27 -19 46 -76 38 -114 -10 -45 -48 -81 -87 -81 -18 0 -39 4 -47 9 -9 6 -21
5 -31 -1 -10 -6 -25 -8 -34 -5 -14 5 -16 26 -16 140 0 74 3 137 7 141 4 4 16
6 28 4 16 -2 21 -12 25 -53z m618 47 c9 -7 12 -42 10 -143 -3 -131 -3 -134
-26 -137 -13 -2 -29 2 -37 8 -9 7 -15 8 -20 0 -12 -19 -73 -11 -102 14 -24 21
-28 31 -28 79 0 45 5 60 25 82 22 24 31 26 73 22 46 -4 47 -3 47 24 0 15 7 35
16 43 17 18 24 19 42 8z m-744 -98 c20 -21 42 -81 33 -90 -2 -2 -35 -4 -75 -6
-40 -1 -72 -5 -72 -9 0 -20 33 -31 74 -26 35 5 45 3 50 -10 7 -18 8 -16 -21
-32 -30 -15 -88 -14 -122 4 -53 27 -66 120 -25 166 37 41 118 43 158 3z m-476
17 c8 -5 22 -32 31 -62 l18 -53 20 59 c18 55 22 60 48 60 26 0 30 -6 48 -60
l21 -60 18 63 c18 58 21 62 48 62 17 0 30 -3 30 -6 0 -4 -14 -51 -31 -106
l-30 -99 -32 3 c-29 3 -34 8 -49 57 -10 30 -19 56 -22 58 -2 2 -13 -22 -23
-54 -18 -52 -22 -58 -50 -61 -31 -3 -31 -2 -62 90 -17 51 -31 99 -31 106 0 14
28 16 48 3z m953 -10 c21 -17 23 -27 24 -102 l0 -84 -27 -3 c-16 -2 -28 2 -28
8 0 7 -6 8 -19 0 -54 -29 -121 3 -121 58 0 44 30 65 84 60 40 -3 46 -1 46 16
0 17 -6 18 -54 13 -44 -4 -56 -2 -60 10 -4 9 -5 17 -4 18 40 30 125 34 159 6z
m492 -1 c85 -67 34 -190 -79 -190 -50 0 -104 53 -104 102 1 41 20 77 51 94 37
20 102 17 132 -6z m132 10 c4 -7 12 -7 25 0 30 16 50 12 50 -10 0 -13 -12 -25
-35 -34 -34 -14 -34 -15 -37 -83 -3 -65 -4 -68 -28 -68 -25 0 -25 1 -28 103
l-3 102 25 0 c14 0 28 -5 31 -10z"/>
<path d="M935 1810 c3 -5 10 -10 16 -10 5 0 9 5 9 10 0 6 -7 10 -16 10 -8 0
-12 -4 -9 -10z"/>
<path d="M1325 1789 c-18 -8 -17 -9 4 -5 14 3 30 1 37 -5 8 -7 14 -7 19 1 3 5
5 10 3 11 -26 6 -47 5 -63 -2z"/>
<path d="M893 1783 c9 -2 25 -2 35 0 9 3 1 5 -18 5 -19 0 -27 -2 -17 -5z"/>
<path d="M973 1783 c9 -2 23 -2 30 0 6 3 -1 5 -18 5 -16 0 -22 -2 -12 -5z"/>
<path d="M1199 1737 c5 -5 24 -4 42 1 l34 10 -42 -1 c-23 -1 -38 -6 -34 -10z"/>
<path d="M1480 1603 c0 -22 2 -25 10 -13 8 12 10 12 10 1 0 -8 2 -12 5 -10 7
8 -6 49 -16 49 -5 0 -9 -12 -9 -27z"/>
<path d="M932 618 c-21 -21 -15 -76 9 -89 35 -18 69 3 69 44 0 38 -15 57 -45
57 -12 0 -26 -5 -33 -12z"/>
<path d="M1406 615 c-37 -38 -2 -104 49 -91 24 6 26 10 23 54 -3 42 -6 47 -29
50 -15 2 -34 -4 -43 -13z"/>
<path d="M687 623 c-16 -16 -4 -23 39 -23 40 0 45 2 34 15 -13 15 -61 21 -73
8z"/>
<path d="M1164 545 c-8 -21 4 -35 30 -35 27 0 46 18 39 36 -7 19 -62 18 -69
-1z"/>
<path d="M1654 605 c-14 -21 -15 -31 -6 -51 15 -31 37 -40 68 -26 18 9 24 19
24 45 0 18 -5 38 -12 45 -20 20 -56 14 -74 -13z"/>
</g>
</svg>
