<svg version="1.1" id="Layer_1" xmlns="http://www.w3.org/2000/svg" xmlns:xlink="http://www.w3.org/1999/xlink" x="0px" y="0px"
	 width="100%" viewBox="0 0 500 500" enable-background="new 0 0 500 500" xml:space="preserve">
<path fill="#000000" opacity="1.000000" stroke="none" 
	d="
M501.000000,187.000000 
	C501.000000,291.999969 501.000000,396.499969 501.000000,500.999939 
	C334.333405,500.999969 167.666794,500.999969 1.000146,501.000000 
	C1.000097,334.333435 1.000097,167.666870 1.000049,1.000235 
	C167.666519,1.000157 334.333038,1.000157 500.999786,1.000078 
	C501.000000,62.833332 501.000000,124.666664 501.000000,187.000000 
M440.000000,91.350975 
	C439.632904,90.785164 439.265808,90.219353 438.545563,89.136864 
	C435.117767,85.344719 431.952911,81.266800 428.207275,77.820015 
	C420.461639,70.692368 412.606232,63.655342 404.440125,57.018894 
	C383.511841,40.010826 360.104584,27.349659 334.718811,18.341852 
	C307.014557,8.511359 278.458893,3.524899 249.045746,4.076313 
	C240.344925,4.239429 231.568481,4.747335 222.991501,6.124082 
	C209.687347,8.259618 196.349442,10.614070 183.338577,14.057384 
	C156.816742,21.076355 132.494446,33.080944 110.188370,49.033234 
	C104.573547,53.048687 99.492363,57.810314 93.725151,62.757381 
	C91.820541,63.999592 89.619705,64.950020 88.060791,66.532730 
	C79.749352,74.971046 71.412605,83.398087 63.436031,92.149330 
	C51.697243,105.028175 42.343178,119.644325 34.087391,134.910858 
	C25.136284,151.463150 18.377161,168.971481 13.468975,187.131134 
	C8.543283,205.355560 5.552401,223.982925 5.172989,242.833145 
	C4.921308,255.337372 5.497357,267.989838 7.208996,280.367676 
	C9.211630,294.849915 12.212345,309.273621 15.930462,323.420380 
	C21.438616,344.377899 30.713907,363.903229 42.209805,382.201569 
	C48.348045,391.971924 55.966549,400.812347 63.239433,410.676636 
	C64.317169,412.108185 65.252472,413.679565 66.496971,414.947418 
	C72.265388,420.824066 78.099258,426.637024 83.947205,432.434937 
	C98.370750,446.735077 114.892204,458.214691 132.521515,468.129028 
	C165.874100,486.885834 201.913712,496.812469 239.944763,498.759918 
	C255.071396,499.534485 270.445404,498.554749 285.506531,496.725037 
	C302.949585,494.605957 320.038635,490.270599 336.614380,484.050201 
	C365.205048,473.320923 391.257202,458.439697 414.685028,437.767029 
	C420.967377,431.498749 427.535645,425.487366 433.458496,418.895996 
	C440.565399,410.986908 447.673340,402.974182 453.809235,394.317596 
	C469.548859,372.112152 481.316925,347.857117 488.965027,321.691254 
	C495.123962,300.620148 498.603180,279.089417 498.927582,257.129578 
	C499.046936,249.047546 498.668243,240.922180 497.919830,232.872086 
	C496.892883,221.826202 496.194824,210.631790 493.775665,199.855759 
	C486.918274,169.309860 475.303253,140.577332 457.732544,114.532776 
	C452.403290,106.633339 445.921356,99.511513 439.993011,92.097649 
	C439.993011,92.097649 440.057251,92.071426 440.000000,91.350975 
z"/>
<path fill="#8CC641" opacity="1.000000" stroke="none" 
	d="
M414.089020,438.068848 
	C391.257202,458.439697 365.205048,473.320923 336.614380,484.050201 
	C320.038635,490.270599 302.949585,494.605957 285.506531,496.725037 
	C270.445404,498.554749 255.071396,499.534485 239.944763,498.759918 
	C201.913712,496.812469 165.874100,486.885834 132.521515,468.129028 
	C114.892204,458.214691 98.370750,446.735077 83.947205,432.434937 
	C78.099258,426.637024 72.265388,420.824066 66.496971,414.947418 
	C65.252472,413.679565 64.317169,412.108185 63.090034,409.972168 
	C57.742004,388.015442 54.716450,366.437103 54.219498,344.584473 
	C53.394257,308.296143 58.804142,272.913727 70.952225,238.652710 
	C77.744888,219.495468 85.815079,200.919769 97.172310,184.108612 
	C99.326126,188.264313 101.270943,192.128128 103.291199,196.327667 
	C104.575058,199.026352 105.637848,201.478073 107.015297,203.737991 
	C116.583809,219.436722 126.217682,235.095596 135.914230,251.135025 
	C137.722931,254.222733 139.215851,257.127777 141.212082,259.631531 
	C151.444916,272.465973 161.807343,285.197144 171.754379,297.989807 
	C169.525864,299.288025 167.366959,300.279724 165.864670,301.885651 
	C161.116180,306.961761 156.641266,312.292572 152.009781,317.479584 
	C142.963104,327.611450 133.914841,337.742310 124.796028,347.809052 
	C121.932610,350.970123 121.169823,355.003418 123.822540,357.718506 
	C130.480957,364.533478 137.881119,370.623779 145.160370,377.289368 
	C151.207977,382.056580 157.079041,386.539093 163.144409,391.295593 
	C168.238739,395.015381 173.138748,398.461212 178.329651,402.074829 
	C180.388611,403.154968 182.156662,404.067261 184.126129,405.257263 
	C203.375778,417.327667 223.728119,426.263489 245.001694,433.161957 
	C287.895905,447.071472 331.699890,451.447052 376.397797,445.089691 
	C389.038696,443.291809 401.529419,440.438232 414.089020,438.068848 
z"/>
<path fill="#FFC916" opacity="1.000000" stroke="none" 
	d="
M414.387024,437.917908 
	C401.529419,440.438232 389.038696,443.291809 376.397797,445.089691 
	C331.699890,451.447052 287.895905,447.071472 245.001694,433.161957 
	C223.728119,426.263489 203.375778,417.327667 184.421722,405.060852 
	C191.014984,401.289703 197.514099,397.992615 204.330261,394.595947 
	C210.003540,391.555450 215.477005,388.807190 220.691269,385.633087 
	C231.179276,379.248749 241.526001,372.632324 252.307617,366.061890 
	C259.739349,361.225403 266.949219,356.648682 273.807068,351.594299 
	C281.009979,346.285553 287.875732,340.519348 295.203308,335.102661 
	C296.379822,335.752655 297.312744,336.161469 298.093384,336.766754 
	C314.887604,349.788330 331.717987,362.764374 348.406647,375.920166 
	C352.413208,379.078583 355.962646,379.915222 359.707764,375.897064 
	C366.814148,368.272522 373.898865,360.627808 381.164673,352.706390 
	C385.545959,346.940125 389.755157,341.458954 394.143890,335.691559 
	C397.235687,330.622925 400.147949,325.840485 403.306610,320.881653 
	C404.031311,319.851410 404.509613,318.997620 405.294800,317.975769 
	C443.094910,253.564316 456.021149,184.841644 443.242737,111.427856 
	C442.118469,104.968727 441.057648,98.498558 439.967377,92.033508 
	C445.921356,99.511513 452.403290,106.633339 457.732544,114.532776 
	C475.303253,140.577332 486.918274,169.309860 493.775665,199.855759 
	C496.194824,210.631790 496.892883,221.826202 497.919830,232.872086 
	C498.668243,240.922180 499.046936,249.047546 498.927582,257.129578 
	C498.603180,279.089417 495.123962,300.620148 488.965027,321.691254 
	C481.316925,347.857117 469.548859,372.112152 453.809235,394.317596 
	C447.673340,402.974182 440.565399,410.986908 433.458496,418.895996 
	C427.535645,425.487366 420.967377,431.498749 414.387024,437.917908 
z"/>
<path fill="#EC2028" opacity="1.000000" stroke="none" 
	d="
M96.963303,183.816711 
	C85.815079,200.919769 77.744888,219.495468 70.952225,238.652710 
	C58.804142,272.913727 53.394257,308.296143 54.219498,344.584473 
	C54.716450,366.437103 57.742004,388.015442 62.928810,409.670074 
	C55.966549,400.812347 48.348045,391.971924 42.209805,382.201569 
	C30.713907,363.903229 21.438616,344.377899 15.930462,323.420380 
	C12.212345,309.273621 9.211630,294.849915 7.208996,280.367676 
	C5.497357,267.989838 4.921308,255.337372 5.172989,242.833145 
	C5.552401,223.982925 8.543283,205.355560 13.468975,187.131134 
	C18.377161,168.971481 25.136284,151.463150 34.087391,134.910858 
	C42.343178,119.644325 51.697243,105.028175 63.436031,92.149330 
	C71.412605,83.398087 79.749352,74.971046 88.060791,66.532730 
	C89.619705,64.950020 91.820541,63.999592 94.358185,62.484688 
	C96.463921,61.949997 97.928520,61.624279 99.410568,61.435646 
	C118.533585,59.001690 137.602478,55.264809 156.795761,54.443035 
	C196.840225,52.728493 235.822754,59.561882 272.982056,74.681160 
	C288.429382,80.966331 302.987915,89.435905 317.614624,97.035614 
	C310.193390,100.795410 303.108063,104.431763 295.674927,108.122681 
	C286.318268,113.369308 277.193939,118.373520 268.340851,123.818756 
	C262.335571,127.512413 256.711121,131.825256 250.606277,136.022369 
	C242.830673,141.659988 235.376236,147.151642 227.895065,152.606628 
	C223.989700,155.454300 220.037338,158.237534 215.812653,160.878967 
	C210.140106,155.766052 204.671768,150.917236 199.400635,145.862762 
	C188.243439,135.164215 177.140198,124.408035 166.123413,113.565201 
	C162.938324,110.430405 159.641464,110.013191 156.407990,112.828369 
	C150.792313,117.717583 145.453033,122.924294 139.713364,128.169632 
	C136.284805,131.891815 133.140732,135.442230 129.711487,139.166229 
	C125.947258,143.557297 122.468185,147.774765 118.704056,152.168655 
	C115.606598,156.224884 112.794212,160.104691 109.704315,164.172028 
	C107.260979,167.863647 105.095139,171.367722 102.651466,175.066498 
	C100.570190,178.113052 98.766747,180.964890 96.963303,183.816711 
z"/>
<path fill="#439FD6" opacity="1.000000" stroke="none" 
	d="
M317.950592,96.912148 
	C302.987915,89.435905 288.429382,80.966331 272.982056,74.681160 
	C235.822754,59.561882 196.840225,52.728493 156.795761,54.443035 
	C137.602478,55.264809 118.533585,59.001690 99.410568,61.435646 
	C97.928520,61.624279 96.463921,61.949997 94.578583,62.220512 
	C99.492363,57.810314 104.573547,53.048687 110.188370,49.033234 
	C132.494446,33.080944 156.816742,21.076355 183.338577,14.057384 
	C196.349442,10.614070 209.687347,8.259618 222.991501,6.124082 
	C231.568481,4.747335 240.344925,4.239429 249.045746,4.076313 
	C278.458893,3.524899 307.014557,8.511359 334.718811,18.341852 
	C360.104584,27.349659 383.511841,40.010826 404.440125,57.018894 
	C412.606232,63.655342 420.461639,70.692368 428.207275,77.820015 
	C431.952911,81.266800 435.117767,85.344719 438.713318,89.794167 
	C439.273102,90.991455 439.665192,91.531441 440.057251,92.071426 
	C440.057251,92.071426 439.993011,92.097649 439.980194,92.065582 
	C441.057648,98.498558 442.118469,104.968727 443.242737,111.427856 
	C456.021149,184.841644 443.094910,253.564316 405.097778,317.676270 
	C399.444305,307.678406 394.294708,297.812012 389.079773,287.593414 
	C381.732941,275.702423 374.451477,264.163635 367.105164,252.224136 
	C363.198883,245.885391 359.496490,239.851151 355.472809,234.039368 
	C352.162994,229.258713 348.471893,224.742035 345.173767,219.856689 
	C355.119263,210.049240 364.801453,200.453003 374.576263,190.952026 
	C381.004883,184.703476 387.594269,178.620605 394.053223,172.402832 
	C396.051208,170.479477 397.185455,168.633347 395.416809,165.468033 
	C388.225586,152.597916 377.690887,142.751541 366.772827,132.760498 
	C361.692291,128.355835 356.840149,124.189468 351.704803,119.845352 
	C348.286133,117.434410 345.150635,115.201225 341.837952,112.686714 
	C339.109192,110.600845 336.557648,108.796310 333.775940,106.750275 
	C329.688538,104.027771 325.831238,101.546761 321.690186,98.896622 
	C320.254456,98.122383 319.102509,97.517265 317.950592,96.912148 
z"/>
<path fill="#FFC916" opacity="1.000000" stroke="none" 
	d="
M440.028625,91.711197 
	C439.665192,91.531441 439.273102,90.991455 438.889893,90.052505 
	C439.265808,90.219353 439.632904,90.785164 440.028625,91.711197 
z"/>
<path fill="#000000" opacity="1.000000" stroke="none" 
	d="
M344.949799,220.108368 
	C348.471893,224.742035 352.162994,229.258713 355.472809,234.039368 
	C359.496490,239.851151 363.198883,245.885391 367.024841,252.535095 
	C363.970947,257.479645 360.932495,261.712463 357.582031,266.089050 
	C354.164276,270.451141 351.058563,274.669464 347.643341,279.027832 
	C343.520721,283.761444 339.707642,288.355072 335.589172,293.080383 
	C330.151886,298.782135 325.019897,304.352203 319.582092,310.054962 
	C311.147095,318.442810 303.017975,326.697906 294.888824,334.953033 
	C287.875732,340.519348 281.009979,346.285553 273.807068,351.594299 
	C266.949219,356.648682 259.739349,361.225403 251.950470,365.977264 
	C246.547318,362.930023 241.877960,359.917633 237.096954,356.657043 
	C236.665588,356.298920 236.345901,356.189026 235.781921,356.029907 
	C235.537659,355.980682 235.050156,355.877197 234.899338,355.573273 
	C231.542465,352.828369 228.336411,350.387421 224.979950,347.634796 
	C220.434402,343.635193 216.039246,339.947266 211.423126,336.014893 
	C206.104782,331.174896 201.007401,326.579346 195.879913,321.637695 
	C187.941391,313.515839 180.032928,305.740112 172.124481,297.964386 
	C161.807343,285.197144 151.444916,272.465973 141.212082,259.631531 
	C139.215851,257.127777 137.722931,254.222733 135.994034,250.805237 
	C139.341232,245.108627 142.692261,240.109543 146.344177,234.952560 
	C149.466202,231.212479 152.287338,227.630295 155.408112,223.897949 
	C158.159775,220.878220 160.611801,218.008667 163.368469,214.969543 
	C167.149521,210.551407 170.625900,206.302841 174.401276,201.910629 
	C178.167740,198.195557 181.635208,194.624146 185.402451,190.911072 
	C188.819183,187.555298 191.936142,184.341202 195.360504,180.987610 
	C202.480667,174.248688 209.293442,167.649277 216.106216,161.049881 
	C220.037338,158.237534 223.989700,155.454300 227.895065,152.606628 
	C235.376236,147.151642 242.830673,141.659988 250.964722,136.084732 
	C255.403442,138.359802 259.173615,140.733688 263.094086,143.409302 
	C266.126221,145.822464 269.008118,147.933899 272.064026,150.342102 
	C275.811554,153.465942 279.385040,156.293015 283.099182,159.420135 
	C285.456665,161.495300 287.673492,163.270401 290.035675,165.353119 
	C293.101685,168.142868 296.022339,170.625015 299.082581,173.412659 
	C304.101837,178.159683 308.981537,182.601212 314.007324,187.347870 
	C324.418915,198.471451 334.684357,209.289902 344.949799,220.108368 
z"/>
<path fill="#85BE41" opacity="1.000000" stroke="none" 
	d="
M171.754379,297.989807 
	C180.032928,305.740112 187.941391,313.515839 195.525085,321.666321 
	C192.640533,324.029633 189.727753,325.697510 187.580460,328.060913 
	C176.798325,339.927979 166.168335,351.934753 155.590073,363.984802 
	C151.899673,368.188690 148.510544,372.657074 144.983826,377.004669 
	C137.881119,370.623779 130.480957,364.533478 123.822540,357.718506 
	C121.169823,355.003418 121.932610,350.970123 124.796028,347.809052 
	C133.914841,337.742310 142.963104,327.611450 152.009781,317.479584 
	C156.641266,312.292572 161.116180,306.961761 165.864670,301.885651 
	C167.366959,300.279724 169.525864,299.288025 171.754379,297.989807 
z"/>
<path fill="#7DB541" opacity="1.000000" stroke="none" 
	d="
M145.160370,377.289368 
	C148.510544,372.657074 151.899673,368.188690 155.590073,363.984802 
	C166.168335,351.934753 176.798325,339.927979 187.580460,328.060913 
	C189.727753,325.697510 192.640533,324.029633 195.555176,322.012421 
	C201.007401,326.579346 206.104782,331.174896 211.187134,336.341248 
	C208.021744,340.532806 204.912842,344.190613 201.713776,347.767792 
	C188.807693,362.199280 175.873749,376.605865 162.950104,391.021637 
	C157.079041,386.539093 151.207977,382.056580 145.160370,377.289368 
z"/>
<path fill="#75AC42" opacity="1.000000" stroke="none" 
	d="
M163.144409,391.295593 
	C175.873749,376.605865 188.807693,362.199280 201.713776,347.767792 
	C204.912842,344.190613 208.021744,340.532806 211.408081,336.585693 
	C216.039246,339.947266 220.434402,343.635193 224.681946,347.806946 
	C223.900085,348.827026 223.191055,349.296356 222.642685,349.909393 
	C211.570877,362.287262 200.426804,374.602417 189.507278,387.113495 
	C185.411377,391.806366 181.846008,396.962250 178.038757,401.907013 
	C173.138748,398.461212 168.238739,395.015381 163.144409,391.295593 
z"/>
<path fill="#BC1F24" opacity="1.000000" stroke="none" 
	d="
M155.108475,224.048111 
	C152.287338,227.630295 149.466202,231.212479 146.174469,234.657455 
	C141.962402,231.006470 138.191422,227.523514 134.485382,223.972763 
	C125.613869,215.473068 116.812614,206.899384 107.873627,198.471558 
	C106.639099,197.307648 104.783707,196.802216 103.215752,195.991943 
	C101.270943,192.128128 99.326126,188.264313 97.172318,184.108612 
	C98.766747,180.964890 100.570190,178.113052 102.879837,175.325653 
	C114.173271,185.675919 124.922691,196.001785 135.762085,206.232346 
	C142.137009,212.249207 148.654892,218.114594 155.108475,224.048111 
z"/>
<path fill="#6DA341" opacity="1.000000" stroke="none" 
	d="
M178.329651,402.074829 
	C181.846008,396.962250 185.411377,391.806366 189.507278,387.113495 
	C200.426804,374.602417 211.570877,362.287262 222.642685,349.909393 
	C223.191055,349.296356 223.900085,348.827026 224.832336,348.118622 
	C228.336411,350.387421 231.542465,352.828369 234.825500,355.918884 
	C234.612595,357.157043 234.435730,357.845825 234.016144,358.319580 
	C225.599335,367.823151 217.072205,377.230804 208.775742,386.837799 
	C206.801910,389.123413 205.580643,392.058960 204.013214,394.695557 
	C197.514099,397.992615 191.014984,401.289703 184.220291,404.783203 
	C182.156662,404.067261 180.388611,403.154968 178.329651,402.074829 
z"/>
<path fill="#B12124" opacity="1.000000" stroke="none" 
	d="
M103.291199,196.327667 
	C104.783707,196.802216 106.639099,197.307648 107.873627,198.471558 
	C116.812614,206.899384 125.613869,215.473068 134.485382,223.972763 
	C138.191422,227.523514 141.962402,231.006470 145.873581,234.815338 
	C142.692261,240.109543 139.341232,245.108627 135.910385,250.437500 
	C126.217682,235.095596 116.583809,219.436722 107.015297,203.737991 
	C105.637848,201.478073 104.575058,199.026352 103.291199,196.327667 
z"/>
<path fill="#FCC119" opacity="1.000000" stroke="none" 
	d="
M295.203308,335.102661 
	C303.017975,326.697906 311.147095,318.442810 319.925598,310.137268 
	C336.263947,322.102783 351.889709,334.202759 367.685974,346.075928 
	C371.676422,349.075378 375.101440,353.511353 380.992554,352.991455 
	C373.898865,360.627808 366.814148,368.272522 359.707764,375.897064 
	C355.962646,379.915222 352.413208,379.078583 348.406647,375.920166 
	C331.717987,362.764374 314.887604,349.788330 298.093384,336.766754 
	C297.312744,336.161469 296.379822,335.752655 295.203308,335.102661 
z"/>
<path fill="#F8B61D" opacity="1.000000" stroke="none" 
	d="
M381.164673,352.706390 
	C375.101440,353.511353 371.676422,349.075378 367.685974,346.075928 
	C351.889709,334.202759 336.263947,322.102783 320.231445,310.004578 
	C325.019897,304.352203 330.151886,298.782135 335.883545,293.252625 
	C351.482361,304.965424 366.416565,316.722656 381.525360,328.251160 
	C385.388000,331.198456 389.803070,333.421814 393.964355,335.977783 
	C389.755157,341.458954 385.545959,346.940125 381.164673,352.706390 
z"/>
<path fill="#F3AB21" opacity="1.000000" stroke="none" 
	d="
M394.143860,335.691528 
	C389.803070,333.421814 385.388000,331.198456 381.525360,328.251160 
	C366.416565,316.722656 351.482361,304.965424 336.188904,293.120941 
	C339.707642,288.355072 343.520721,283.761444 347.867126,279.281555 
	C355.212830,284.703583 361.973450,290.079895 368.849243,295.304718 
	C380.213837,303.940582 391.652679,312.478729 403.060211,321.058075 
	C400.147949,325.840485 397.235687,330.622925 394.143860,335.691528 
z"/>
<path fill="#EC9F23" opacity="1.000000" stroke="none" 
	d="
M403.306610,320.881653 
	C391.652679,312.478729 380.213837,303.940582 368.849243,295.304718 
	C361.973450,290.079895 355.212830,284.703583 348.176636,279.141571 
	C351.058563,274.669464 354.164276,270.451141 357.880096,266.260742 
	C364.429871,270.780884 370.283142,275.393921 376.339264,279.723206 
	C380.460938,282.669617 384.866516,285.218811 389.145142,287.945648 
	C394.294708,297.812012 399.444305,307.678406 404.790894,317.844299 
	C404.509613,318.997620 404.031311,319.851410 403.306610,320.881653 
z"/>
<path fill="#679C40" opacity="1.000000" stroke="none" 
	d="
M204.330261,394.595947 
	C205.580643,392.058960 206.801910,389.123413 208.775742,386.837799 
	C217.072205,377.230804 225.599335,367.823151 234.016144,358.319580 
	C234.435730,357.845825 234.612595,357.157043 234.976318,356.222778 
	C235.050156,355.877197 235.537659,355.980682 235.949005,356.207397 
	C236.615540,356.640778 236.898285,356.797852 237.208603,356.905273 
	C241.877960,359.917633 246.547318,362.930023 251.573837,366.027039 
	C241.526001,372.632324 231.179276,379.248749 220.691269,385.633087 
	C215.477005,388.807190 210.003540,391.555450 204.330261,394.595947 
z"/>
<path fill="#E52127" opacity="1.000000" stroke="none" 
	d="
M215.812653,160.878967 
	C209.293442,167.649277 202.480667,174.248688 195.330170,180.619308 
	C194.325272,179.094604 193.936249,177.515167 192.948441,176.546112 
	C181.557724,165.371704 170.099869,154.265289 158.606750,143.195969 
	C154.303131,139.051025 149.945267,134.952911 145.435837,131.036423 
	C143.901123,129.703537 141.826019,128.992859 139.997849,127.997864 
	C145.453033,122.924294 150.792313,117.717583 156.407990,112.828369 
	C159.641464,110.013191 162.938324,110.430405 166.123413,113.565201 
	C177.140198,124.408035 188.243439,135.164215 199.400635,145.862762 
	C204.671768,150.917236 210.140106,155.766052 215.812653,160.878967 
z"/>
<path fill="#DF2027" opacity="1.000000" stroke="none" 
	d="
M139.713364,128.169632 
	C141.826019,128.992859 143.901123,129.703537 145.435837,131.036423 
	C149.945267,134.952911 154.303131,139.051025 158.606750,143.195969 
	C170.099869,154.265289 181.557724,165.371704 192.948441,176.546112 
	C193.936249,177.515167 194.325272,179.094604 195.022766,180.758820 
	C191.936142,184.341202 188.819183,187.555298 185.109375,190.739243 
	C172.801010,179.429428 161.128189,168.104965 149.352890,156.888077 
	C142.991196,150.828049 136.454437,144.951797 129.996658,138.992645 
	C133.140732,135.442230 136.284805,131.891815 139.713364,128.169632 
z"/>
<path fill="#D92027" opacity="1.000000" stroke="none" 
	d="
M129.711487,139.166229 
	C136.454437,144.951797 142.991196,150.828049 149.352890,156.888077 
	C161.128189,168.104965 172.801010,179.429428 184.809601,190.880905 
	C181.635208,194.624146 178.167740,198.195557 174.108261,201.738464 
	C167.685165,196.314346 161.781693,190.994537 156.038971,185.506516 
	C145.858337,175.777405 135.830887,165.887421 125.600800,156.211243 
	C123.735497,154.446945 121.209915,153.380707 118.989128,151.992233 
	C122.468185,147.774765 125.947258,143.557297 129.711487,139.166229 
z"/>
<path fill="#D02026" opacity="1.000000" stroke="none" 
	d="
M118.704063,152.168655 
	C121.209915,153.380707 123.735497,154.446945 125.600800,156.211243 
	C135.830887,165.887421 145.858337,175.777405 156.038971,185.506516 
	C161.781693,190.994537 167.685165,196.314346 173.809250,201.882111 
	C170.625900,206.302841 167.149521,210.551407 163.290100,214.625687 
	C161.814697,213.011063 160.886917,211.400146 159.601624,210.159698 
	C153.857407,204.616043 147.976700,199.214111 142.209747,193.693649 
	C132.952759,184.832352 123.772369,175.890900 114.489784,167.056671 
	C113.189888,165.819565 111.494263,164.998260 109.981819,163.984497 
	C112.794212,160.104691 115.606598,156.224884 118.704063,152.168655 
z"/>
<path fill="#C61F25" opacity="1.000000" stroke="none" 
	d="
M109.704315,164.172028 
	C111.494263,164.998260 113.189888,165.819565 114.489784,167.056671 
	C123.772369,175.890900 132.952759,184.832352 142.209747,193.693649 
	C147.976700,199.214111 153.857407,204.616043 159.601624,210.159698 
	C160.886917,211.400146 161.814697,213.011063 162.985443,214.795258 
	C160.611801,218.008667 158.159775,220.878220 155.408112,223.897949 
	C148.654892,218.114594 142.137009,212.249207 135.762085,206.232346 
	C124.922691,196.001785 114.173271,185.675919 103.157669,175.130951 
	C105.095139,171.367722 107.260979,167.863647 109.704315,164.172028 
z"/>
<path fill="#2A7CB0" opacity="1.000000" stroke="none" 
	d="
M271.889984,150.045319 
	C269.008118,147.933899 266.126221,145.822464 263.265900,143.115692 
	C272.294678,133.705185 281.383423,124.970764 290.253113,116.019302 
	C292.531067,113.720360 294.118256,110.737022 296.022766,108.068108 
	C303.108063,104.431763 310.193390,100.795410 317.614624,97.035599 
	C319.102509,97.517265 320.254456,98.122383 321.677338,99.250488 
	C320.906311,101.407944 320.127380,103.309250 318.781891,104.635918 
	C303.991089,119.219734 289.115448,133.717560 274.246307,148.221756 
	C273.540009,148.910721 272.678955,149.441101 271.889984,150.045319 
z"/>
<path fill="#2775A7" opacity="1.000000" stroke="none" 
	d="
M295.674927,108.122681 
	C294.118256,110.737022 292.531067,113.720360 290.253113,116.019302 
	C281.383423,124.970764 272.294678,133.705185 263.115631,142.813965 
	C259.173615,140.733688 255.403442,138.359802 251.274811,135.923538 
	C256.711121,131.825256 262.335571,127.512413 268.340851,123.818756 
	C277.193939,118.373520 286.318268,113.369308 295.674927,108.122681 
z"/>
<path fill="#3E9AD1" opacity="1.000000" stroke="none" 
	d="
M345.173767,219.856689 
	C334.684357,209.289902 324.418915,198.471451 314.352417,187.276093 
	C315.143707,186.611603 315.862579,186.453857 316.310181,186.017715 
	C332.580292,170.164993 348.863647,154.325226 364.996765,138.333923 
	C366.222961,137.118530 366.358643,134.802963 367.001221,132.998779 
	C377.690887,142.751541 388.225586,152.597916 395.416809,165.468033 
	C397.185455,168.633347 396.051208,170.479477 394.053223,172.402832 
	C387.594269,178.620605 381.004883,184.703476 374.576263,190.952026 
	C364.801453,200.453003 355.119263,210.049240 345.173767,219.856689 
z"/>
<path fill="#3B92C8" opacity="1.000000" stroke="none" 
	d="
M366.772827,132.760498 
	C366.358643,134.802963 366.222961,137.118530 364.996765,138.333923 
	C348.863647,154.325226 332.580292,170.164993 316.310181,186.017715 
	C315.862579,186.453857 315.143707,186.611603 314.206299,186.970963 
	C308.981537,182.601212 304.101837,178.159683 299.307617,173.161423 
	C304.671051,167.827072 310.114777,163.218506 315.193176,158.237457 
	C326.565979,147.082642 337.780029,135.765335 348.989105,124.445251 
	C350.220978,123.201157 350.999329,121.507996 351.988007,120.023102 
	C356.840149,124.189468 361.692291,128.355835 366.772827,132.760498 
z"/>
<path fill="#3284B8" opacity="1.000000" stroke="none" 
	d="
M272.064026,150.342102 
	C272.678955,149.441101 273.540009,148.910721 274.246307,148.221756 
	C289.115448,133.717560 303.991089,119.219734 318.781891,104.635918 
	C320.127380,103.309250 320.906311,101.407944 321.961121,99.419609 
	C325.831238,101.546761 329.688538,104.027771 333.706177,107.087151 
	C325.518890,116.147202 317.188782,124.646248 308.818695,133.105713 
	C300.218994,141.797272 291.580200,150.450211 282.958496,159.120056 
	C279.385040,156.293015 275.811554,153.465942 272.064026,150.342102 
z"/>
<path fill="#388DC2" opacity="1.000000" stroke="none" 
	d="
M351.704803,119.845352 
	C350.999329,121.507996 350.220978,123.201157 348.989105,124.445251 
	C337.780029,135.765335 326.565979,147.082642 315.193176,158.237457 
	C310.114777,163.218506 304.671051,167.827072 299.168030,172.855927 
	C296.022339,170.625015 293.101685,168.142868 290.329956,165.183319 
	C306.905823,148.715729 323.346741,132.739822 339.726044,116.700943 
	C340.737610,115.710419 341.263397,114.223839 342.015198,112.968048 
	C345.150635,115.201225 348.286133,117.434410 351.704803,119.845352 
z"/>
<path fill="#3789BE" opacity="1.000000" stroke="none" 
	d="
M341.837952,112.686722 
	C341.263397,114.223839 340.737610,115.710419 339.726044,116.700943 
	C323.346741,132.739822 306.905823,148.715729 290.184570,164.875702 
	C287.673492,163.270401 285.456665,161.495300 283.099182,159.420135 
	C291.580200,150.450211 300.218994,141.797272 308.818695,133.105713 
	C317.188782,124.646248 325.518890,116.147202 333.936310,107.328644 
	C336.557648,108.796310 339.109192,110.600845 341.837952,112.686722 
z"/>
<path fill="#E59328" opacity="1.000000" stroke="none" 
	d="
M389.079773,287.593414 
	C384.866516,285.218811 380.460938,282.669617 376.339264,279.723206 
	C370.283142,275.393921 364.429871,270.780884 358.192139,266.117004 
	C360.932495,261.712463 363.970947,257.479645 367.089722,252.935852 
	C374.451477,264.163635 381.732941,275.702423 389.079773,287.593414 
z"/>
<path fill="#6DA341" opacity="1.000000" stroke="none" 
	d="
M237.096954,356.657043 
	C236.898285,356.797852 236.615540,356.640778 236.193283,356.256622 
	C236.345901,356.189026 236.665588,356.298920 237.096954,356.657043 
z"/>
</svg>